<?xml version="1.0" encoding="UTF-8"?> <svg xmlns="http://www.w3.org/2000/svg" width="25.951" height="24.804" viewBox="0 0 25.951 24.804"><path id="Path_80" data-name="Path 80" d="M101.164-26.015H95.6v-8.952c0-2.251-.806-3.787-2.82-3.787a3.052,3.052,0,0,0-2.854,2.039,3.783,3.783,0,0,0-.183,1.355v9.345H84.183s.071-15.164,0-16.734h5.562v2.369a5.52,5.52,0,0,1,5.015-2.762c3.658,0,6.4,2.389,6.4,7.53ZM78.321-45.033h-.034a2.882,2.882,0,0,1-3.075-2.892,2.9,2.9,0,0,1,3.146-2.894,2.891,2.891,0,0,1,3.11,2.894A2.9,2.9,0,0,1,78.321-45.033Zm-2.78,2.284h5.564v16.734H75.541Z" transform="translate(-75.213 50.819)" fill="#fff"></path></svg> 