<?xml version="1.0" encoding="UTF-8"?> <svg xmlns="http://www.w3.org/2000/svg" id="Component_17_2" data-name="Component 17 – 2" width="21.582" height="21.577" viewBox="0 0 21.582 21.577"><path id="Path_203" data-name="Path 203" d="M76.033,177.463c0-.451,0-.9.019-1.353l0-.049a.033.033,0,0,0,0-.049l0-.122a1.924,1.924,0,0,0,.077-.44c.046-.232.091-.464.136-.7a13.42,13.42,0,0,1,.427-1.331,10.915,10.915,0,0,1,.561-1.1,1.023,1.023,0,0,0,.137-.245v0c.01-.007.023-.011.029-.02a9.6,9.6,0,0,1,1.026-1.313l.321-.323a10.019,10.019,0,0,1,1.552-1.168c.356-.213.734-.384,1.108-.562a12.548,12.548,0,0,1,1.357-.44c.322-.06.642-.125.967-.163a9.016,9.016,0,0,1,2.108,0c.326.038.646.1.967.164a13.048,13.048,0,0,1,1.357.44,13.872,13.872,0,0,1,1.3.672.149.149,0,0,0,.078.051,12.383,12.383,0,0,1,1.31,1.034l.266.268a9.738,9.738,0,0,1,1.052,1.343c.006.009.02.013.03.019v0a3.239,3.239,0,0,0,.239.426c.169.3.311.612.455.923.163.437.31.879.429,1.329a10.479,10.479,0,0,1,.183,1.077,9.759,9.759,0,0,1,.017,1.68,11.526,11.526,0,0,1-.2,1.31,13.488,13.488,0,0,1-.426,1.331,14.8,14.8,0,0,1-.7,1.348v0c-.043.016-.054.06-.076.093-.16.238-.328.471-.508.694l-.18.225a3.262,3.262,0,0,1,.772.057,3.159,3.159,0,0,1,.335.3l1.02,1.019.313.312,1.019,1.02.337.337,1.019,1.019.337.337c.255.258.51.517.767.774a1.279,1.279,0,0,1,.226.286l.013.294-.017.07a1.293,1.293,0,0,1-.215.266c-.219.216-.435.435-.654.652a1.916,1.916,0,0,1-.356.318.6.6,0,0,1-.635-.176c-.255-.272-.527-.527-.792-.789l-.371-.371-.96-.96-.4-.4-.96-.96-.4-.4-.96-.96-.319-.344a3.707,3.707,0,0,1-.045-.751c-.036-.022-.052,0-.068.018a8.7,8.7,0,0,1-2.23,1.373c-.019.008-.036.019-.054.029a11.7,11.7,0,0,1-1.356.444c-.424.084-.85.158-1.28.2l-.076.005a11.121,11.121,0,0,1-1.33,0l-.076-.006a12.3,12.3,0,0,1-1.281-.2,11.648,11.648,0,0,1-1.357-.441,10.412,10.412,0,0,1-1.339-.7,10.562,10.562,0,0,1-1.348-1.051l-.294-.3a9.456,9.456,0,0,1-1.209-1.611c-.2-.347-.375-.71-.543-1.074a13.239,13.239,0,0,1-.426-1.332c-.045-.232-.089-.464-.136-.7a2.152,2.152,0,0,0-.076-.44l0-.1a.1.1,0,0,0-.022-.126Zm6.752-7.1a4.041,4.041,0,0,0-.837.326,3.068,3.068,0,0,0-.519.269.817.817,0,0,0-.077.037,6.788,6.788,0,0,0-1.513,1.232,5.906,5.906,0,0,0-.855,1.168,3.776,3.776,0,0,0-.27.5,6.882,6.882,0,0,0-.615,2.22,1.265,1.265,0,0,0-.032.353,4.646,4.646,0,0,0,.032,1,5.47,5.47,0,0,0,.278,1.356,4.6,4.6,0,0,0,.34.863,2.768,2.768,0,0,0,.266.5.593.593,0,0,0,.026.055,6.6,6.6,0,0,0,1.471,1.725,5.3,5.3,0,0,0,.948.659,2.446,2.446,0,0,0,.466.241,4.3,4.3,0,0,0,.889.356,5.969,5.969,0,0,0,1.335.276,7.1,7.1,0,0,0,1.355,0c.065-.007.13-.012.194-.021a5.817,5.817,0,0,0,1.165-.26,4.249,4.249,0,0,0,.887-.355,2.442,2.442,0,0,0,.468-.243c.04-.021.081-.038.119-.062a6.827,6.827,0,0,0,1.452-1.189,6.035,6.035,0,0,0,.89-1.218,2.869,2.869,0,0,0,.248-.47,4.783,4.783,0,0,0,.337-.859,5.574,5.574,0,0,0,.28-1.359,5.4,5.4,0,0,0,0-1.356,5.564,5.564,0,0,0-.281-1.358,4.641,4.641,0,0,0-.329-.839,2.942,2.942,0,0,0-.257-.491,6.333,6.333,0,0,0-1.3-1.622,5.857,5.857,0,0,0-1.127-.825,3.76,3.76,0,0,0-.572-.3,3.9,3.9,0,0,0-.817-.317c-.041-.016-.082-.034-.124-.046a6.522,6.522,0,0,0-1.233-.237c-.122-.008-.244-.017-.367-.024a5.512,5.512,0,0,0-.99.033c-.1.01-.2.016-.306.031A5.123,5.123,0,0,0,82.785,170.361Z" transform="translate(-76.032 -168.021)" fill="#fff"></path></svg> 