<?xml version="1.0" encoding="UTF-8"?> <svg xmlns="http://www.w3.org/2000/svg" width="25.951" height="21.088" viewBox="0 0 25.951 21.088"><path id="Path_77" data-name="Path 77" d="M63.915-44.736c.013.228.018.456.018.688A15.048,15.048,0,0,1,48.782-28.9a15.058,15.058,0,0,1-8.161-2.394,11.378,11.378,0,0,0,1.268.074A10.677,10.677,0,0,0,48.5-33.5a5.327,5.327,0,0,1-4.971-3.7,5.258,5.258,0,0,0,1,.1,5.262,5.262,0,0,0,1.4-.19,5.328,5.328,0,0,1-4.272-5.221v-.067a5.313,5.313,0,0,0,2.412.668,5.317,5.317,0,0,1-2.367-4.432,5.313,5.313,0,0,1,.719-2.675A15.112,15.112,0,0,0,53.4-43.45a5.284,5.284,0,0,1-.138-1.213,5.324,5.324,0,0,1,5.326-5.323,5.329,5.329,0,0,1,3.888,1.679A10.648,10.648,0,0,0,65.855-49.6a5.348,5.348,0,0,1-2.34,2.945,10.56,10.56,0,0,0,3.057-.837,10.85,10.85,0,0,1-2.657,2.753" transform="translate(-40.621 49.986)" fill="#fff"></path></svg> 