<?xml version="1.0" encoding="UTF-8"?> <svg xmlns="http://www.w3.org/2000/svg" width="38.091" height="26.783" viewBox="0 0 38.091 26.783"><path id="Path_120" data-name="Path 120" d="M169.228,32.191A4.786,4.786,0,0,0,165.86,28.8c-2.971-.8-14.882-.8-14.882-.8s-11.911,0-14.882.8a4.786,4.786,0,0,0-3.368,3.389c-.8,2.99-.8,9.228-.8,9.228s0,6.238.8,9.228a4.715,4.715,0,0,0,3.368,3.335c2.971.8,14.882.8,14.882.8s11.911,0,14.882-.8a4.715,4.715,0,0,0,3.368-3.335c.8-2.99.8-9.228.8-9.228S170.024,35.18,169.228,32.191ZM147.083,47.082V35.755l9.956,5.664-9.956,5.663Z" transform="translate(-131.933 -28)" fill="#fff"></path></svg> 